<svg xmlns="http://www.w3.org/2000/svg" viewBox="0 0 32 32">
    <g
        class="sm-logo"
    >
        <path
            class="sm-logo__arrow"
            d="M24.966 13.959L21.17 15.27c-.357.124-.477.626-.162.835.432.286 1.645.804 1.833.967.187.163.86 1.28 1.201 1.665.25.283.732.093.804-.278l.762-3.943a.49.49 0 0 0-.642-.557"
            fill="#283a4e"
        />

        <path
            class="sm-logo__infinite"
            d="M29.421 10.045c-1.779-1.67-4.166-2.385-6.576-2.159l-.444.063a7.375 7.375 0 0 0-4.633 2.558c-.706.826-1.266 1.761-1.768 2.726a50.409 50.409 0 0 0-.78 1.58c-.183.387-.364.777-.548 1.168-.54 1.149-1.109 2.292-1.868 3.304-.043.057-.085.114-.13.17a9.489 9.489 0 0 1-.187.23c-.038.044-.073.092-.112.136a5.212 5.212 0 0 1-.37.38c-.042.04-.085.078-.128.117-.041.037-.081.077-.124.114-.073.063-.154.116-.231.175-.034.026-.068.053-.103.078-.139.1-.283.191-.43.277l-.1.059c-.125.07-.254.13-.384.188-.047.022-.09.048-.138.068-.02.009-.043.014-.063.022-.12.048-.243.088-.366.128-.075.024-.15.052-.227.073-.13.036-.26.062-.393.09-.062.012-.123.03-.185.041l-.05.008c-.006 0-.011.002-.017.003a5.729 5.729 0 0 1-1.767.002c-1.715-.27-3.23-1.276-4.098-2.789-.848-1.476-1.06-3.42-.348-4.995.64-1.413 1.604-2.463 3.027-3.115.821-.376 1.754-.526 2.668-.465V7.852c-2.2-.062-4.34.665-5.97 2.194a8.219 8.219 0 0 0-2.56 6.494 8.211 8.211 0 0 0 3.755 6.33c2.106 1.344 4.825 1.638 7.195.86a6.831 6.831 0 0 0 1.702-.843c.13-.088.257-.182.383-.278l.098-.076c.099-.079.194-.161.288-.245.047-.041.095-.081.141-.124.108-.1.213-.204.316-.311l.06-.061a9.193 9.193 0 0 0 .958-1.22c.051-.077.103-.152.152-.23l.06-.096c.025-.039.048-.078.072-.118.284-.461.546-.939.8-1.422l.002-.003c.47-.893.891-1.812 1.328-2.722.335-.7.68-1.395 1.065-2.068.803-1.405 1.847-2.681 3.398-3.275 1.366-.522 2.993-.506 4.329.106 1.423.652 2.387 1.701 3.027 3.115.713 1.574.5 3.518-.347 4.995-.868 1.513-2.383 2.52-4.098 2.79-1.485.233-2.95-.166-4.363-1.152-.03-.021-.061-.039-.092-.06-.964-.692-1.571-1.798-2.121-2.841-.388.81-1.316 2.511-1.327 2.53.037.062.073.122.111.182l.02.032c.153.24.315.474.486.702l.062.084c.18.234.37.46.575.679.123.129.25.254.38.375l.092.082c.112.099.224.196.34.288l.055.041a7.505 7.505 0 0 0 .652.451l.066.04c.437.266.9.491 1.395.654 2.37.776 5.09.483 7.195-.862a8.212 8.212 0 0 0 3.755-6.33 8.217 8.217 0 0 0-2.562-6.494"
            fill="#4dc196"
        />
    </g>
</svg>
